<?xml version="1.0" encoding="UTF-8" standalone="no"?>
<!-- Created with Inkscape (http://www.inkscape.org/) -->

<svg
   xmlns:dc="http://purl.org/dc/elements/1.1/"
   xmlns:cc="http://creativecommons.org/ns#"
   xmlns:rdf="http://www.w3.org/1999/02/22-rdf-syntax-ns#"
   xmlns:svg="http://www.w3.org/2000/svg"
   xmlns="http://www.w3.org/2000/svg"
   xmlns:sodipodi="http://sodipodi.sourceforge.net/DTD/sodipodi-0.dtd"
   xmlns:inkscape="http://www.inkscape.org/namespaces/inkscape"
   width="60"
   height="60"
   id="svg2"
   version="1.1"
   inkscape:version="0.48.3.1 r9886"
   inkscape:export-filename="/home/dg/shared/workspace/stellation4/src/client/res/crosshairs.png"
   inkscape:export-xdpi="44.68"
   inkscape:export-ydpi="44.68"
   sodipodi:docname="crosshairs.svg">
  <defs
     id="defs4">
    <filter
       inkscape:collect="always"
       id="filter3870">
      <feGaussianBlur
         inkscape:collect="always"
         stdDeviation="0.76693729"
         id="feGaussianBlur3872" />
    </filter>
  </defs>
  <sodipodi:namedview
     id="base"
     pagecolor="#ffffff"
     bordercolor="#666666"
     borderopacity="1.0"
     inkscape:pageopacity="0"
     inkscape:pageshadow="2"
     inkscape:zoom="0.7"
     inkscape:cx="-209.32712"
     inkscape:cy="-155.18134"
     inkscape:document-units="px"
     inkscape:current-layer="layer1"
     showgrid="true"
     inkscape:snap-global="true"
     inkscape:snap-bbox="true"
     inkscape:object-paths="true"
     inkscape:snap-nodes="true"
     inkscape:snap-grids="false"
     inkscape:window-width="1373"
     inkscape:window-height="804"
     inkscape:window-x="0"
     inkscape:window-y="0"
     inkscape:window-maximized="1">
    <inkscape:grid
       type="xygrid"
       id="grid2985"
       empspacing="5"
       visible="true"
       enabled="true"
       snapvisiblegridlinesonly="true" />
  </sodipodi:namedview>
  <metadata
     id="metadata7">
    <rdf:RDF>
      <cc:Work
         rdf:about="">
        <dc:format>image/svg+xml</dc:format>
        <dc:type
           rdf:resource="http://purl.org/dc/dcmitype/StillImage" />
        <dc:title></dc:title>
      </cc:Work>
    </rdf:RDF>
  </metadata>
  <g
     inkscape:label="Layer 1"
     inkscape:groupmode="layer"
     id="layer1"
     transform="translate(0,-992.36218)">
    <path
       id="path3018"
       transform="translate(0,992.36218)"
       style="fill:none;stroke:#000000;stroke-width:6;stroke-linecap:round;stroke-linejoin:miter;stroke-opacity:1;stroke-miterlimit:4;stroke-dasharray:none;filter:url(#filter3870)"
       d="m 50.420173,9.68862 -13.2873,13.313795 M 23.033657,37.129746 9.6839025,50.50612 M 9.5979605,9.51612 22.963365,22.908265 M 37.078254,37.051394 50.506115,50.50612 M 57.375,20.40622 C 54.455394,12.07822 47.841611,5.48581 39.5,2.59375 m 0,54.81247 c 8.341611,-2.892 14.955394,-9.4844 17.875,-17.8125 m -54.75,0 c 2.9196059,8.3281 9.533389,14.9205 17.875,17.8125 m 0,-54.81247 C 12.158389,5.48581 5.5446059,12.07822 2.625,20.40622" />
    <path
       inkscape:connector-curvature="0"
       id="path3018-5"
       style="fill:none;stroke:#ffff00;stroke-width:2;stroke-linecap:round;stroke-linejoin:miter;stroke-miterlimit:4;stroke-opacity:1;stroke-dasharray:none"
       d="m 50.420174,1002.0507 -13.2873,13.3137 m -14.099217,14.1275 -13.3497545,13.3764 m -0.08594,-40.9901 13.3654045,13.3922 m 14.114889,14.1431 13.427862,13.4548 m 6.868882,-30.1 c -2.919606,-8.328 -9.533389,-14.9204 -17.875,-17.81249 m 0,54.81259 c 8.341611,-2.892 14.955394,-9.4844 17.875,-17.8125 m -54.7499995,0 c 2.919606,8.3281 9.5333885,14.9205 17.8749995,17.8125 m 0,-54.81259 c -8.341611,2.89209 -14.9553935,9.48449 -17.8749995,17.81249" />
  </g>
</svg>
